<svg width="70" height="70" viewBox="0 0 70 70" fill="none" xmlns="http://www.w3.org/2000/svg">
<path d="M25.1837 29.7C25.1837 28.3827 25.565 27.3513 26.3277 26.606C27.1077 25.8607 28.1043 25.488 29.3177 25.488C30.531 25.488 31.519 25.8607 32.2817 26.606C33.0617 27.3513 33.4517 28.3827 33.4517 29.7C33.4517 31.0347 33.0617 32.0747 32.2817 32.82C31.519 33.5653 30.531 33.938 29.3177 33.938C28.1043 33.938 27.1077 33.5653 26.3277 32.82C25.565 32.0747 25.1837 31.0347 25.1837 29.7ZM41.8757 25.8L31.6577 44H28.1217L38.3137 25.8H41.8757ZM29.2917 27.672C28.3383 27.672 27.8617 28.348 27.8617 29.7C27.8617 31.0693 28.3383 31.754 29.2917 31.754C29.7597 31.754 30.1237 31.5893 30.3837 31.26C30.6437 30.9133 30.7737 30.3933 30.7737 29.7C30.7737 28.348 30.2797 27.672 29.2917 27.672ZM36.5977 40.074C36.5977 38.7393 36.979 37.708 37.7417 36.98C38.5217 36.2347 39.5183 35.862 40.7317 35.862C41.945 35.862 42.9243 36.2347 43.6697 36.98C44.4323 37.708 44.8137 38.7393 44.8137 40.074C44.8137 41.4087 44.4323 42.4487 43.6697 43.194C42.9243 43.9393 41.945 44.312 40.7317 44.312C39.501 44.312 38.5043 43.9393 37.7417 43.194C36.979 42.4487 36.5977 41.4087 36.5977 40.074ZM40.7057 38.046C39.7177 38.046 39.2237 38.722 39.2237 40.074C39.2237 41.4433 39.7177 42.128 40.7057 42.128C41.6763 42.128 42.1617 41.4433 42.1617 40.074C42.1617 38.722 41.6763 38.046 40.7057 38.046Z" fill="#FBFBFB"/>
</svg>
