<svg width="16" height="20" viewBox="0 0 16 20" fill="none" xmlns="http://www.w3.org/2000/svg">
<path d="M0.973703 10.276C0.973703 7.27733 1.51104 4.92867 2.5857 3.23C3.6777 1.53133 5.48037 0.681999 7.9937 0.681999C10.507 0.681999 12.301 1.53133 13.3757 3.23C14.4677 4.92867 15.0137 7.27733 15.0137 10.276C15.0137 13.292 14.4677 15.658 13.3757 17.374C12.301 19.09 10.507 19.948 7.9937 19.948C5.48037 19.948 3.6777 19.09 2.5857 17.374C1.51104 15.658 0.973703 13.292 0.973703 10.276ZM11.4257 10.276C11.4257 8.99333 11.339 7.91867 11.1657 7.052C11.0097 6.168 10.6804 5.44867 10.1777 4.894C9.69237 4.33933 8.96437 4.062 7.9937 4.062C7.02304 4.062 6.28637 4.33933 5.7837 4.894C5.29837 5.44867 4.96904 6.168 4.7957 7.052C4.6397 7.91867 4.5617 8.99333 4.5617 10.276C4.5617 11.5933 4.6397 12.7027 4.7957 13.604C4.9517 14.488 5.28104 15.2073 5.7837 15.762C6.28637 16.2993 7.02304 16.568 7.9937 16.568C8.96437 16.568 9.70104 16.2993 10.2037 15.762C10.7064 15.2073 11.0357 14.488 11.1917 13.604C11.3477 12.7027 11.4257 11.5933 11.4257 10.276Z" fill="#FBFBFB"/>
</svg>
