<svg width="70" height="70" viewBox="0 0 70 70" fill="none" xmlns="http://www.w3.org/2000/svg">
<path d="M27.9737 34.276C27.9737 31.2773 28.511 28.9287 29.5857 27.23C30.6777 25.5313 32.4804 24.682 34.9937 24.682C37.507 24.682 39.301 25.5313 40.3757 27.23C41.4677 28.9287 42.0137 31.2773 42.0137 34.276C42.0137 37.292 41.4677 39.658 40.3757 41.374C39.301 43.09 37.507 43.948 34.9937 43.948C32.4804 43.948 30.6777 43.09 29.5857 41.374C28.511 39.658 27.9737 37.292 27.9737 34.276ZM38.4257 34.276C38.4257 32.9933 38.339 31.9187 38.1657 31.052C38.0097 30.168 37.6804 29.4487 37.1777 28.894C36.6924 28.3393 35.9644 28.062 34.9937 28.062C34.023 28.062 33.2864 28.3393 32.7837 28.894C32.2984 29.4487 31.969 30.168 31.7957 31.052C31.6397 31.9187 31.5617 32.9933 31.5617 34.276C31.5617 35.5933 31.6397 36.7027 31.7957 37.604C31.9517 38.488 32.281 39.2073 32.7837 39.762C33.2864 40.2993 34.023 40.568 34.9937 40.568C35.9644 40.568 36.701 40.2993 37.2037 39.762C37.7064 39.2073 38.0357 38.488 38.1917 37.604C38.3477 36.7027 38.4257 35.5933 38.4257 34.276Z" fill="#FBFBFB"/>
</svg>
