<svg width="70" height="70" viewBox="0 0 70 70" fill="none" xmlns="http://www.w3.org/2000/svg">
<path d="M30.0572 39.892C31.7212 38.5053 33.0472 37.3527 34.0352 36.434C35.0232 35.498 35.8465 34.5273 36.5052 33.522C37.1638 32.5167 37.4932 31.5287 37.4932 30.558C37.4932 29.674 37.2852 28.9807 36.8692 28.478C36.4532 27.9753 35.8118 27.724 34.9452 27.724C34.0785 27.724 33.4112 28.0187 32.9432 28.608C32.4752 29.18 32.2325 29.9687 32.2152 30.974H28.6792C28.7485 28.894 29.3638 27.3167 30.5252 26.242C31.7038 25.1673 33.1945 24.63 34.9972 24.63C36.9732 24.63 38.4898 25.1587 39.5472 26.216C40.6045 27.256 41.1332 28.634 41.1332 30.35C41.1332 31.702 40.7692 32.9933 40.0412 34.224C39.3132 35.4547 38.4812 36.5293 37.5452 37.448C36.6092 38.3493 35.3872 39.4413 33.8792 40.724H41.5492V43.74H28.7052V41.036L30.0572 39.892Z" fill="#FBFBFB"/>
</svg>
