<svg width="14" height="20" viewBox="0 0 14 20" fill="none" xmlns="http://www.w3.org/2000/svg">
<path d="M2.05716 15.892C3.72116 14.5053 5.04716 13.3527 6.03516 12.434C7.02316 11.498 7.84649 10.5273 8.50516 9.522C9.16382 8.51667 9.49316 7.52867 9.49316 6.558C9.49316 5.674 9.28516 4.98067 8.86916 4.478C8.45316 3.97533 7.81182 3.724 6.94516 3.724C6.07849 3.724 5.41116 4.01867 4.94316 4.608C4.47516 5.18 4.23249 5.96867 4.21516 6.974H0.679156C0.74849 4.894 1.36382 3.31667 2.52516 2.242C3.70382 1.16733 5.19449 0.629998 6.99716 0.629998C8.97316 0.629998 10.4898 1.15867 11.5472 2.216C12.6045 3.256 13.1332 4.634 13.1332 6.35C13.1332 7.702 12.7692 8.99333 12.0412 10.224C11.3132 11.4547 10.4812 12.5293 9.54516 13.448C8.60916 14.3493 7.38716 15.4413 5.87916 16.724H13.5492V19.74H0.705156V17.036L2.05716 15.892Z" fill="#FBFBFB"/>
</svg>
