<svg width="14" height="21" viewBox="0 0 14 21" fill="none" xmlns="http://www.w3.org/2000/svg">
<path d="M0.647774 6.038C0.73444 4.30467 1.34111 2.97 2.46777 2.034C3.61177 1.08067 5.11111 0.603999 6.96577 0.603999C8.23111 0.603999 9.31444 0.829332 10.2158 1.28C11.1171 1.71333 11.7931 2.31133 12.2438 3.074C12.7118 3.81933 12.9458 4.66867 12.9458 5.622C12.9458 6.714 12.6598 7.64133 12.0878 8.404C11.5331 9.14933 10.8658 9.652 10.0858 9.912V10.016C11.0911 10.328 11.8711 10.8827 12.4258 11.68C12.9978 12.4773 13.2838 13.5 13.2838 14.748C13.2838 15.788 13.0411 16.7153 12.5558 17.53C12.0878 18.3447 11.3858 18.986 10.4498 19.454C9.53111 19.9047 8.42177 20.13 7.12177 20.13C5.16311 20.13 3.56844 19.636 2.33777 18.648C1.10711 17.66 0.457107 16.204 0.387773 14.28H3.92377C3.95844 15.1293 4.24444 15.814 4.78177 16.334C5.33644 16.8367 6.09044 17.088 7.04377 17.088C7.92777 17.088 8.60377 16.8453 9.07177 16.36C9.55711 15.8573 9.79977 15.216 9.79977 14.436C9.79977 13.396 9.47044 12.6507 8.81177 12.2C8.15311 11.7493 7.13044 11.524 5.74377 11.524H4.98977V8.534H5.74377C8.20511 8.534 9.43577 7.71067 9.43577 6.064C9.43577 5.31867 9.21044 4.738 8.75977 4.322C8.32644 3.906 7.69377 3.698 6.86177 3.698C6.04711 3.698 5.41444 3.92333 4.96377 4.374C4.53044 4.80733 4.27911 5.362 4.20977 6.038H0.647774Z" fill="#FBFBFB"/>
</svg>
