<svg width="70" height="70" viewBox="0 0 70 70" fill="none" xmlns="http://www.w3.org/2000/svg">
<path d="M28.6478 30.038C28.7344 28.3047 29.3411 26.97 30.4678 26.034C31.6118 25.0807 33.1111 24.604 34.9658 24.604C36.2311 24.604 37.3144 24.8293 38.2158 25.28C39.1171 25.7133 39.7931 26.3113 40.2438 27.074C40.7118 27.8193 40.9458 28.6687 40.9458 29.622C40.9458 30.714 40.6598 31.6413 40.0878 32.404C39.5331 33.1493 38.8658 33.652 38.0858 33.912V34.016C39.0911 34.328 39.8711 34.8827 40.4258 35.68C40.9978 36.4773 41.2838 37.5 41.2838 38.748C41.2838 39.788 41.0411 40.7153 40.5558 41.53C40.0878 42.3447 39.3858 42.986 38.4498 43.454C37.5311 43.9047 36.4218 44.13 35.1218 44.13C33.1631 44.13 31.5684 43.636 30.3378 42.648C29.1071 41.66 28.4571 40.204 28.3878 38.28H31.9238C31.9584 39.1293 32.2444 39.814 32.7818 40.334C33.3364 40.8367 34.0904 41.088 35.0438 41.088C35.9278 41.088 36.6038 40.8453 37.0718 40.36C37.5571 39.8573 37.7998 39.216 37.7998 38.436C37.7998 37.396 37.4704 36.6507 36.8118 36.2C36.1531 35.7493 35.1304 35.524 33.7438 35.524H32.9898V32.534H33.7438C36.2051 32.534 37.4358 31.7107 37.4358 30.064C37.4358 29.3187 37.2104 28.738 36.7598 28.322C36.3264 27.906 35.6938 27.698 34.8618 27.698C34.0471 27.698 33.4144 27.9233 32.9638 28.374C32.5304 28.8073 32.2791 29.362 32.2098 30.038H28.6478Z" fill="#FBFBFB"/>
</svg>
