<svg width="70" height="70" viewBox="0 0 70 70" fill="none" xmlns="http://www.w3.org/2000/svg">
<path d="M40.7518 28.192H32.3278V32.638C32.6918 32.1873 33.2118 31.8233 33.8878 31.546C34.5638 31.2513 35.2831 31.104 36.0458 31.104C37.4325 31.104 38.5678 31.4073 39.4518 32.014C40.3358 32.6207 40.9771 33.4007 41.3758 34.354C41.7745 35.29 41.9738 36.2953 41.9738 37.37C41.9738 39.3633 41.4018 40.9667 40.2578 42.18C39.1311 43.3933 37.5191 44 35.4218 44C33.4458 44 31.8685 43.506 30.6898 42.518C29.5111 41.53 28.8438 40.2387 28.6878 38.644H32.2238C32.3798 39.3373 32.7265 39.892 33.2638 40.308C33.8185 40.724 34.5205 40.932 35.3698 40.932C36.3925 40.932 37.1638 40.6113 37.6838 39.97C38.2038 39.3287 38.4638 38.4793 38.4638 37.422C38.4638 36.3473 38.1951 35.5327 37.6578 34.978C37.1378 34.406 36.3665 34.12 35.3438 34.12C34.6158 34.12 34.0091 34.302 33.5238 34.666C33.0385 35.03 32.6918 35.5153 32.4838 36.122H28.9998V24.994H40.7518V28.192Z" fill="#FBFBFB"/>
</svg>
