<svg width="14" height="20" viewBox="0 0 14 20" fill="none" xmlns="http://www.w3.org/2000/svg">
<path d="M12.7518 4.192H4.32779V8.638C4.69179 8.18733 5.21179 7.82333 5.88779 7.546C6.56379 7.25133 7.28312 7.104 8.04579 7.104C9.43246 7.104 10.5678 7.40733 11.4518 8.014C12.3358 8.62067 12.9771 9.40067 13.3758 10.354C13.7745 11.29 13.9738 12.2953 13.9738 13.37C13.9738 15.3633 13.4018 16.9667 12.2578 18.18C11.1311 19.3933 9.51912 20 7.42179 20C5.44579 20 3.86846 19.506 2.68979 18.518C1.51112 17.53 0.843789 16.2387 0.687789 14.644H4.22379C4.37979 15.3373 4.72646 15.892 5.26379 16.308C5.81846 16.724 6.52046 16.932 7.36979 16.932C8.39246 16.932 9.16379 16.6113 9.68379 15.97C10.2038 15.3287 10.4638 14.4793 10.4638 13.422C10.4638 12.3473 10.1951 11.5327 9.65779 10.978C9.13779 10.406 8.36646 10.12 7.34379 10.12C6.61579 10.12 6.00912 10.302 5.52379 10.666C5.03846 11.03 4.69179 11.5153 4.48379 12.122H0.999789V0.994H12.7518V4.192Z" fill="#FBFBFB"/>
</svg>
