<svg width="70" height="70" viewBox="0 0 70 70" fill="none" xmlns="http://www.w3.org/2000/svg">
<path d="M37.8906 29.778C37.7172 29.05 37.4139 28.504 36.9806 28.14C36.5646 27.776 35.9579 27.594 35.1606 27.594C33.9646 27.594 33.0806 28.0793 32.5086 29.05C31.9539 30.0033 31.6679 31.5633 31.6506 33.73C32.0666 33.0367 32.6732 32.4993 33.4706 32.118C34.2679 31.7193 35.1346 31.52 36.0706 31.52C37.1972 31.52 38.1939 31.7627 39.0606 32.248C39.9272 32.7333 40.6032 33.444 41.0886 34.38C41.5739 35.2987 41.8166 36.408 41.8166 37.708C41.8166 38.9387 41.5652 40.0393 41.0626 41.01C40.5772 41.9633 39.8579 42.7087 38.9046 43.246C37.9512 43.7833 36.8159 44.052 35.4986 44.052C33.6959 44.052 32.2746 43.6533 31.2346 42.856C30.2119 42.0587 29.4926 40.9493 29.0766 39.528C28.6779 38.0893 28.4786 36.3213 28.4786 34.224C28.4786 31.052 29.0246 28.66 30.1166 27.048C31.2086 25.4187 32.9332 24.604 35.2906 24.604C37.1106 24.604 38.5232 25.098 39.5286 26.086C40.5339 27.074 41.1146 28.3047 41.2706 29.778H37.8906ZM35.2386 34.51C34.3199 34.51 33.5486 34.7787 32.9246 35.316C32.3006 35.8533 31.9886 36.6333 31.9886 37.656C31.9886 38.6787 32.2746 39.4847 32.8466 40.074C33.4359 40.6633 34.2592 40.958 35.3166 40.958C36.2526 40.958 36.9892 40.672 37.5266 40.1C38.0812 39.528 38.3586 38.7567 38.3586 37.786C38.3586 36.7807 38.0899 35.9833 37.5526 35.394C37.0326 34.8047 36.2612 34.51 35.2386 34.51Z" fill="#FBFBFB"/>
</svg>
