<svg width="14" height="21" viewBox="0 0 14 21" fill="none" xmlns="http://www.w3.org/2000/svg">
<path d="M9.89057 5.778C9.71724 5.05 9.4139 4.504 8.98057 4.14C8.56457 3.776 7.9579 3.594 7.16057 3.594C5.96457 3.594 5.08057 4.07933 4.50857 5.05C3.9539 6.00333 3.6679 7.56333 3.65057 9.73C4.06657 9.03667 4.67324 8.49933 5.47057 8.118C6.2679 7.71933 7.13457 7.52 8.07057 7.52C9.19724 7.52 10.1939 7.76267 11.0606 8.248C11.9272 8.73333 12.6032 9.444 13.0886 10.38C13.5739 11.2987 13.8166 12.408 13.8166 13.708C13.8166 14.9387 13.5652 16.0393 13.0626 17.01C12.5772 17.9633 11.8579 18.7087 10.9046 19.246C9.95124 19.7833 8.8159 20.052 7.49857 20.052C5.6959 20.052 4.27457 19.6533 3.23457 18.856C2.2119 18.0587 1.49257 16.9493 1.07657 15.528C0.677904 14.0893 0.47857 12.3213 0.47857 10.224C0.47857 7.052 1.02457 4.66 2.11657 3.048C3.20857 1.41867 4.93324 0.603999 7.29057 0.603999C9.11057 0.603999 10.5232 1.098 11.5286 2.086C12.5339 3.074 13.1146 4.30467 13.2706 5.778H9.89057ZM7.23857 10.51C6.3199 10.51 5.54857 10.7787 4.92457 11.316C4.30057 11.8533 3.98857 12.6333 3.98857 13.656C3.98857 14.6787 4.27457 15.4847 4.84657 16.074C5.4359 16.6633 6.25924 16.958 7.31657 16.958C8.25257 16.958 8.98924 16.672 9.52657 16.1C10.0812 15.528 10.3586 14.7567 10.3586 13.786C10.3586 12.7807 10.0899 11.9833 9.55257 11.394C9.03257 10.8047 8.26124 10.51 7.23857 10.51Z" fill="#FBFBFB"/>
</svg>
