<svg width="14" height="21" viewBox="0 0 14 21" fill="none" xmlns="http://www.w3.org/2000/svg">
<path d="M3.19648 9.964C1.46315 9.06267 0.596484 7.66733 0.596484 5.778C0.596484 4.842 0.830484 3.99267 1.29848 3.23C1.78382 2.45 2.50315 1.83467 3.45648 1.384C4.42715 0.915999 5.60582 0.681999 6.99248 0.681999C8.37915 0.681999 9.54915 0.915999 10.5025 1.384C11.4732 1.83467 12.1925 2.45 12.6605 3.23C13.1458 3.99267 13.3885 4.842 13.3885 5.778C13.3885 6.73133 13.1545 7.572 12.6865 8.3C12.2185 9.01067 11.5945 9.56533 10.8145 9.964C11.7678 10.38 12.5132 10.9867 13.0505 11.784C13.5878 12.5813 13.8565 13.526 13.8565 14.618C13.8565 15.7967 13.5532 16.828 12.9465 17.712C12.3572 18.5787 11.5425 19.246 10.5025 19.714C9.46249 20.182 8.29248 20.416 6.99248 20.416C5.69248 20.416 4.52248 20.182 3.48248 19.714C2.45982 19.246 1.64515 18.5787 1.03848 17.712C0.449151 16.828 0.154484 15.7967 0.154484 14.618C0.154484 13.526 0.423151 12.5813 0.960484 11.784C1.49782 10.9693 2.24315 10.3627 3.19648 9.964ZM9.85249 6.298C9.85249 5.44867 9.59248 4.79 9.07248 4.322C8.56982 3.854 7.87648 3.62 6.99248 3.62C6.12582 3.62 5.43248 3.854 4.91248 4.322C4.40982 4.79 4.15848 5.45733 4.15848 6.324C4.15848 7.104 4.41848 7.728 4.93848 8.196C5.47582 8.664 6.16048 8.898 6.99248 8.898C7.82448 8.898 8.50915 8.664 9.04648 8.196C9.58382 7.71067 9.85249 7.078 9.85249 6.298ZM6.99248 11.55C6.00448 11.55 5.19848 11.8013 4.57448 12.304C3.96782 12.8067 3.66448 13.526 3.66448 14.462C3.66448 15.3287 3.95915 16.0393 4.54848 16.594C5.15515 17.1313 5.96982 17.4 6.99248 17.4C8.01515 17.4 8.82115 17.1227 9.41049 16.568C9.99982 16.0133 10.2945 15.3113 10.2945 14.462C10.2945 13.5433 9.99115 12.8327 9.38448 12.33C8.77782 11.81 7.98048 11.55 6.99248 11.55Z" fill="#FBFBFB"/>
</svg>
