<svg width="70" height="70" viewBox="0 0 70 70" fill="none" xmlns="http://www.w3.org/2000/svg">
<path d="M31.1965 33.964C29.4632 33.0627 28.5965 31.6673 28.5965 29.778C28.5965 28.842 28.8305 27.9927 29.2985 27.23C29.7838 26.45 30.5032 25.8347 31.4565 25.384C32.4272 24.916 33.6058 24.682 34.9925 24.682C36.3792 24.682 37.5492 24.916 38.5025 25.384C39.4732 25.8347 40.1925 26.45 40.6605 27.23C41.1458 27.9927 41.3885 28.842 41.3885 29.778C41.3885 30.7313 41.1545 31.572 40.6865 32.3C40.2185 33.0107 39.5945 33.5653 38.8145 33.964C39.7678 34.38 40.5132 34.9867 41.0505 35.784C41.5878 36.5813 41.8565 37.526 41.8565 38.618C41.8565 39.7967 41.5532 40.828 40.9465 41.712C40.3572 42.5787 39.5425 43.246 38.5025 43.714C37.4625 44.182 36.2925 44.416 34.9925 44.416C33.6925 44.416 32.5225 44.182 31.4825 43.714C30.4598 43.246 29.6452 42.5787 29.0385 41.712C28.4492 40.828 28.1545 39.7967 28.1545 38.618C28.1545 37.526 28.4232 36.5813 28.9605 35.784C29.4978 34.9693 30.2432 34.3627 31.1965 33.964ZM37.8525 30.298C37.8525 29.4487 37.5925 28.79 37.0725 28.322C36.5698 27.854 35.8765 27.62 34.9925 27.62C34.1258 27.62 33.4325 27.854 32.9125 28.322C32.4098 28.79 32.1585 29.4573 32.1585 30.324C32.1585 31.104 32.4185 31.728 32.9385 32.196C33.4758 32.664 34.1605 32.898 34.9925 32.898C35.8245 32.898 36.5092 32.664 37.0465 32.196C37.5838 31.7107 37.8525 31.078 37.8525 30.298ZM34.9925 35.55C34.0045 35.55 33.1985 35.8013 32.5745 36.304C31.9678 36.8067 31.6645 37.526 31.6645 38.462C31.6645 39.3287 31.9592 40.0393 32.5485 40.594C33.1552 41.1313 33.9698 41.4 34.9925 41.4C36.0152 41.4 36.8212 41.1227 37.4105 40.568C37.9998 40.0133 38.2945 39.3113 38.2945 38.462C38.2945 37.5433 37.9912 36.8327 37.3845 36.33C36.7778 35.81 35.9805 35.55 34.9925 35.55Z" fill="#FBFBFB"/>
</svg>
