<svg width="14" height="21" viewBox="0 0 14 21" fill="none" xmlns="http://www.w3.org/2000/svg">
<path d="M4.4523 14.67C4.59097 15.4327 4.90297 16.022 5.38831 16.438C5.89097 16.8367 6.5583 17.036 7.3903 17.036C8.46497 17.036 9.24497 16.594 9.73031 15.71C10.2156 14.8087 10.4583 13.3007 10.4583 11.186C10.0596 11.7407 9.4963 12.174 8.76831 12.486C8.05764 12.798 7.2863 12.954 6.45431 12.954C5.34497 12.954 4.33964 12.7287 3.43831 12.278C2.5543 11.81 1.8523 11.1253 1.3323 10.224C0.812305 9.30533 0.552305 8.196 0.552305 6.896C0.552305 4.972 1.1243 3.44667 2.26831 2.32C3.4123 1.176 4.97231 0.603999 6.94831 0.603999C9.40964 0.603999 11.143 1.39267 12.1483 2.97C13.171 4.54733 13.6823 6.922 13.6823 10.094C13.6823 12.3473 13.483 14.1933 13.0843 15.632C12.703 17.0707 12.0356 18.1627 11.0823 18.908C10.1463 19.6533 8.86364 20.026 7.23431 20.026C5.95164 20.026 4.85964 19.7833 3.9583 19.298C3.05697 18.7953 2.36364 18.1453 1.8783 17.348C1.4103 16.5333 1.14164 15.6407 1.0723 14.67H4.4523ZM7.2083 9.99C8.10964 9.99 8.82031 9.71267 9.34031 9.158C9.86031 8.60333 10.1203 7.858 10.1203 6.922C10.1203 5.89933 9.84297 5.11067 9.28831 4.556C8.75097 3.984 8.0143 3.698 7.07831 3.698C6.14231 3.698 5.39697 3.99267 4.8423 4.582C4.30497 5.154 4.03631 5.91667 4.03631 6.87C4.03631 7.78867 4.29631 8.54267 4.81631 9.132C5.35364 9.704 6.15097 9.99 7.2083 9.99Z" fill="#FBFBFB"/>
</svg>
