<svg width="70" height="70" viewBox="0 0 70 70" fill="none" xmlns="http://www.w3.org/2000/svg">
<path d="M32.4523 38.67C32.591 39.4327 32.903 40.022 33.3883 40.438C33.891 40.8367 34.5583 41.036 35.3903 41.036C36.465 41.036 37.245 40.594 37.7303 39.71C38.2156 38.8087 38.4583 37.3007 38.4583 35.186C38.0596 35.7407 37.4963 36.174 36.7683 36.486C36.0576 36.798 35.2863 36.954 34.4543 36.954C33.345 36.954 32.3396 36.7287 31.4383 36.278C30.5543 35.81 29.8523 35.1253 29.3323 34.224C28.8123 33.3053 28.5523 32.196 28.5523 30.896C28.5523 28.972 29.1243 27.4467 30.2683 26.32C31.4123 25.176 32.9723 24.604 34.9483 24.604C37.4096 24.604 39.143 25.3927 40.1483 26.97C41.171 28.5473 41.6823 30.922 41.6823 34.094C41.6823 36.3473 41.483 38.1933 41.0843 39.632C40.703 41.0707 40.0356 42.1627 39.0823 42.908C38.1463 43.6533 36.8636 44.026 35.2343 44.026C33.9516 44.026 32.8596 43.7833 31.9583 43.298C31.057 42.7953 30.3636 42.1453 29.8783 41.348C29.4103 40.5333 29.1416 39.6407 29.0723 38.67H32.4523ZM35.2083 33.99C36.1096 33.99 36.8203 33.7127 37.3403 33.158C37.8603 32.6033 38.1203 31.858 38.1203 30.922C38.1203 29.8993 37.843 29.1107 37.2883 28.556C36.751 27.984 36.0143 27.698 35.0783 27.698C34.1423 27.698 33.397 27.9927 32.8423 28.582C32.305 29.154 32.0363 29.9167 32.0363 30.87C32.0363 31.7887 32.2963 32.5427 32.8163 33.132C33.3536 33.704 34.151 33.99 35.2083 33.99Z" fill="#FBFBFB"/>
</svg>
