<svg width="70" height="70" viewBox="0 0 70 70" fill="none" xmlns="http://www.w3.org/2000/svg">
<path d="M28.6378 40.542H21.4098L20.2138 44H16.3918L22.9178 25.826H27.1558L33.6818 44H29.8338L28.6378 40.542ZM27.6498 37.63L25.0238 30.038L22.3978 37.63H27.6498ZM35.2371 34.9C35.2371 33.1147 35.6358 31.52 36.4331 30.116C37.2478 28.6947 38.3485 27.594 39.7351 26.814C41.1391 26.0167 42.7078 25.618 44.4411 25.618C46.4691 25.618 48.2458 26.138 49.7711 27.178C51.2965 28.218 52.3625 29.6567 52.9691 31.494H48.7831C48.3671 30.6273 47.7778 29.9773 47.0151 29.544C46.2698 29.1107 45.4031 28.894 44.4151 28.894C43.3578 28.894 42.4131 29.1453 41.5811 29.648C40.7665 30.1333 40.1251 30.8267 39.6571 31.728C39.2065 32.6293 38.9811 33.6867 38.9811 34.9C38.9811 36.096 39.2065 37.1533 39.6571 38.072C40.1251 38.9733 40.7665 39.6753 41.5811 40.178C42.4131 40.6633 43.3578 40.906 44.4151 40.906C45.4031 40.906 46.2698 40.6893 47.0151 40.256C47.7778 39.8053 48.3671 39.1467 48.7831 38.28H52.9691C52.3625 40.1347 51.2965 41.582 49.7711 42.622C48.2631 43.6447 46.4865 44.156 44.4411 44.156C42.7078 44.156 41.1391 43.766 39.7351 42.986C38.3485 42.1887 37.2478 41.088 36.4331 39.684C35.6358 38.28 35.2371 36.6853 35.2371 34.9Z" fill="#FBFBFB"/>
</svg>
