<svg width="37" height="20" viewBox="0 0 37 20" fill="none" xmlns="http://www.w3.org/2000/svg">
<path d="M12.6378 15.542H5.40982L4.21382 19H0.39182L6.91782 0.825998H11.1558L17.6818 19H13.8338L12.6378 15.542ZM11.6498 12.63L9.02382 5.038L6.39782 12.63H11.6498ZM19.2371 9.9C19.2371 8.11467 19.6358 6.52 20.4331 5.116C21.2478 3.69467 22.3485 2.594 23.7351 1.814C25.1391 1.01667 26.7078 0.618 28.4411 0.618C30.4691 0.618 32.2458 1.138 33.7711 2.178C35.2965 3.218 36.3625 4.65667 36.9691 6.494H32.7831C32.3671 5.62733 31.7778 4.97733 31.0151 4.544C30.2698 4.11067 29.4031 3.894 28.4151 3.894C27.3578 3.894 26.4131 4.14533 25.5811 4.648C24.7665 5.13333 24.1251 5.82667 23.6571 6.728C23.2065 7.62933 22.9811 8.68667 22.9811 9.9C22.9811 11.096 23.2065 12.1533 23.6571 13.072C24.1251 13.9733 24.7665 14.6753 25.5811 15.178C26.4131 15.6633 27.3578 15.906 28.4151 15.906C29.4031 15.906 30.2698 15.6893 31.0151 15.256C31.7778 14.8053 32.3671 14.1467 32.7831 13.28H36.9691C36.3625 15.1347 35.2965 16.582 33.7711 17.622C32.2631 18.6447 30.4865 19.156 28.4411 19.156C26.7078 19.156 25.1391 18.766 23.7351 17.986C22.3485 17.1887 21.2478 16.088 20.4331 14.684C19.6358 13.28 19.2371 11.6853 19.2371 9.9Z" fill="#FBFBFB"/>
</svg>
