<svg width="70" height="70" viewBox="0 0 70 70" fill="none" xmlns="http://www.w3.org/2000/svg">
<path d="M25.9315 34.9C25.9315 33.1147 26.3302 31.52 27.1275 30.116C27.9422 28.6947 29.0428 27.594 30.4295 26.814C31.8335 26.0167 33.4022 25.618 35.1355 25.618C37.1635 25.618 38.9402 26.138 40.4655 27.178C41.9908 28.218 43.0568 29.6567 43.6635 31.494H39.4775C39.0615 30.6273 38.4722 29.9773 37.7095 29.544C36.9642 29.1107 36.0975 28.894 35.1095 28.894C34.0522 28.894 33.1075 29.1453 32.2755 29.648C31.4608 30.1333 30.8195 30.8267 30.3515 31.728C29.9008 32.6293 29.6755 33.6867 29.6755 34.9C29.6755 36.096 29.9008 37.1533 30.3515 38.072C30.8195 38.9733 31.4608 39.6753 32.2755 40.178C33.1075 40.6633 34.0522 40.906 35.1095 40.906C36.0975 40.906 36.9642 40.6893 37.7095 40.256C38.4722 39.8053 39.0615 39.1467 39.4775 38.28H43.6635C43.0568 40.1347 41.9908 41.582 40.4655 42.622C38.9575 43.6447 37.1808 44.156 35.1355 44.156C33.4022 44.156 31.8335 43.766 30.4295 42.986C29.0428 42.1887 27.9422 41.088 27.1275 39.684C26.3302 38.28 25.9315 36.6853 25.9315 34.9Z" fill="#FBFBFB"/>
</svg>
