<svg width="19" height="20" viewBox="0 0 19 20" fill="none" xmlns="http://www.w3.org/2000/svg">
<path d="M0.931484 9.9C0.931484 8.11467 1.33015 6.52 2.12748 5.116C2.94215 3.69467 4.04282 2.594 5.42948 1.814C6.83348 1.01667 8.40215 0.618 10.1355 0.618C12.1635 0.618 13.9402 1.138 15.4655 2.178C16.9908 3.218 18.0568 4.65667 18.6635 6.494H14.4775C14.0615 5.62733 13.4722 4.97733 12.7095 4.544C11.9642 4.11067 11.0975 3.894 10.1095 3.894C9.05215 3.894 8.10748 4.14533 7.27548 4.648C6.46082 5.13333 5.81948 5.82667 5.35148 6.728C4.90082 7.62933 4.67548 8.68667 4.67548 9.9C4.67548 11.096 4.90082 12.1533 5.35148 13.072C5.81948 13.9733 6.46082 14.6753 7.27548 15.178C8.10748 15.6633 9.05215 15.906 10.1095 15.906C11.0975 15.906 11.9642 15.6893 12.7095 15.256C13.4722 14.8053 14.0615 14.1467 14.4775 13.28H18.6635C18.0568 15.1347 16.9908 16.582 15.4655 17.622C13.9575 18.6447 12.1808 19.156 10.1355 19.156C8.40215 19.156 6.83348 18.766 5.42948 17.986C4.04282 17.1887 2.94215 16.088 2.12748 14.684C1.33015 13.28 0.931484 11.6853 0.931484 9.9Z" fill="#FBFBFB"/>
</svg>
