<svg width="70" height="70" viewBox="0 0 70 70" fill="none" xmlns="http://www.w3.org/2000/svg">
<path d="M35.1763 31.104C34.5176 31.104 33.9716 30.9047 33.5383 30.506C33.1223 30.09 32.9143 29.5787 32.9143 28.972C32.9143 28.3653 33.1223 27.8627 33.5383 27.464C33.9716 27.048 34.5176 26.84 35.1763 26.84C35.8176 26.84 36.3463 27.048 36.7623 27.464C37.1783 27.8627 37.3863 28.3653 37.3863 28.972C37.3863 29.5787 37.1783 30.09 36.7623 30.506C36.3463 30.9047 35.8176 31.104 35.1763 31.104ZM41.7283 33.132V36.304H28.4683V33.132H41.7283ZM35.1763 42.57C34.5176 42.57 33.9716 42.3707 33.5383 41.972C33.1223 41.556 32.9143 41.0447 32.9143 40.438C32.9143 39.8313 33.1223 39.3287 33.5383 38.93C33.9716 38.514 34.5176 38.306 35.1763 38.306C35.8176 38.306 36.3463 38.514 36.7623 38.93C37.1783 39.3287 37.3863 39.8313 37.3863 40.438C37.3863 41.0447 37.1783 41.556 36.7623 41.972C36.3463 42.3707 35.8176 42.57 35.1763 42.57Z" fill="#FBFBFB"/>
</svg>
